<svg width="612" height="616" viewBox="0 0 612 616" fill="none" xmlns="http://www.w3.org/2000/svg">
<path d="M218.025 416.923V285.439L268.228 331.339C296.415 358.384 313.039 356.663 343.771 331.339L393.975 285.439V416.923C437.656 412.802 453.214 399.639 459 349.507V198.898H405.45C384.695 202.884 374.67 212.361 357.159 230.932L306 277.31L253.884 230.932C233.895 210.859 223.53 200.485 202.725 198.898H153V349.507C159.38 395.248 171.532 412.141 218.025 416.923Z" fill="url(#paint0_linear_191_2)"/>
<circle cx="306.001" cy="593.832" r="21.9937" fill="url(#paint1_linear_191_2)"/>
<circle cx="306.001" cy="21.9937" r="21.9937" fill="url(#paint2_linear_191_2)"/>
<circle cx="21.9937" cy="307.913" r="21.9937" fill="url(#paint3_linear_191_2)"/>
<circle cx="590.006" cy="307.913" r="21.9937" fill="url(#paint4_linear_191_2)"/>
<circle cx="306" cy="307.916" r="284.484" stroke="url(#paint5_linear_191_2)" stroke-width="20.0813"/>
<defs>
<linearGradient id="paint0_linear_191_2" x1="306" y1="198.898" x2="306" y2="416.923" gradientUnits="userSpaceOnUse">
<stop stop-color="#E41499"/>
<stop offset="1" stop-color="#03AEEF"/>
</linearGradient>
<linearGradient id="paint1_linear_191_2" x1="306.001" y1="571.838" x2="306.001" y2="615.826" gradientUnits="userSpaceOnUse">
<stop stop-color="#32B8F1"/>
<stop offset="1" stop-color="#2DBCF3"/>
</linearGradient>
<linearGradient id="paint2_linear_191_2" x1="306.001" y1="0" x2="306.001" y2="43.9875" gradientUnits="userSpaceOnUse">
<stop stop-color="#E41499"/>
<stop offset="1" stop-color="#DC31A2"/>
</linearGradient>
<linearGradient id="paint3_linear_191_2" x1="21.9937" y1="285.919" x2="21.9937" y2="329.907" gradientUnits="userSpaceOnUse">
<stop stop-color="#8F6EC5"/>
<stop offset="1" stop-color="#807ACC"/>
</linearGradient>
<linearGradient id="paint4_linear_191_2" x1="590.006" y1="285.919" x2="590.006" y2="329.907" gradientUnits="userSpaceOnUse">
<stop stop-color="#8F70C7"/>
<stop offset="1" stop-color="#8079CC"/>
</linearGradient>
<linearGradient id="paint5_linear_191_2" x1="306" y1="13.3906" x2="306" y2="602.441" gradientUnits="userSpaceOnUse">
<stop stop-color="#E22D9F"/>
<stop offset="1" stop-color="#2DBCF3"/>
</linearGradient>
</defs>
</svg>
